<?xml version="1.0" encoding="utf-8"?>
<svg viewBox="87.926 94.578 358.571 157.63" width="358.571" height="157.63" xmlns="http://www.w3.org/2000/svg">
  <style type="text/css">
    .x {
    }

  </style>
  <path style="stroke: rgb(0, 0, 0); stroke-width: 0px; fill: rgb(45, 45, 45);" d="M 147.271 94.861 L 165.555 105.415 L 146.414 116.433 L 146.414 153.487 L 128.001 163.759 L 128.001 106.287 Z M 230.553 105.299 L 230.554 126.409 L 211.443 115.345 L 179.354 133.871 L 161.251 123.06 L 210.583 94.578 L 88.914 94.578 L 105.255 103.646 L 88.143 112.618 L 76.01 106.187 L 76.01 116.714 L 82.875 120.401 L 82.875 143.52 L 76.01 140.025 L 76.01 158.697 L 80.942 161.544 L 80.681 183.946 L 76.01 186.643 L 76.01 206.895 L 82.56 203.56 L 82.56 226.678 L 76.01 230.196 L 76.01 240.729 L 87.828 234.464 L 104.939 243.435 L 88.018 252.826 L 76.01 246.528 L 76.01 259.325 L 472.89 259.325 L 472.89 234.95 L 453.685 225.35 L 454.041 201.52 L 472.89 212.191 L 472.89 189.328 L 455.259 179.149 L 454.999 156.748 L 472.89 146.417 L 472.89 134.784 L 454.04 145.454 L 453.687 121.626 L 472.89 112.024 L 472.89 94.578 L 267.495 94.578 L 283.532 103.477 L 266.42 112.449 L 249.101 103.267 L 265.67 94.578 L 211.471 94.578 Z M 211.021 94.325 L 211.471 94.578 L 210.583 94.578 Z M 260.673 184.133 L 242.391 194.688 L 242.419 172.605 L 210.329 154.078 L 210.641 132.995 L 260.413 161.731 Z M 208.385 251.357 L 190.102 240.802 L 209.24 229.786 L 209.24 192.732 L 227.654 182.459 L 227.654 239.93 Z M 126.357 240.136 L 126.355 219.025 L 145.468 230.09 L 177.556 211.564 L 195.661 222.375 L 145.888 251.111 Z M 95.665 161.365 L 113.947 150.807 L 113.918 172.89 L 146.007 191.417 L 145.695 212.501 L 95.925 183.766 Z M 407.572 106.703 L 407.572 164.174 L 389.157 153.903 L 389.157 116.849 L 370.019 105.831 L 388.302 95.277 Z M 324.552 94.741 L 374.324 123.477 L 356.22 134.287 L 324.131 115.761 L 305.02 126.826 L 305.021 105.716 Z M 275.162 162.145 L 324.933 133.41 L 325.245 154.492 L 293.156 173.019 L 293.183 195.103 L 274.901 184.548 Z M 307.919 240.347 L 307.919 182.876 L 326.334 193.148 L 326.334 230.202 L 345.473 241.218 L 327.19 251.774 Z M 389.684 251.527 L 339.914 222.792 L 358.015 211.98 L 390.105 230.507 L 409.216 219.442 L 409.215 240.552 Z M 439.648 184.182 L 389.875 212.919 L 389.565 191.835 L 421.656 173.308 L 421.628 151.225 L 439.91 161.78 Z M 241.949 109.92 L 261.152 120.234 L 261.152 143.352 L 241.593 133.392 Z M 273.955 120.943 L 293.159 111.342 L 293.159 134.102 L 274.31 144.772 Z M 266.608 94.086 L 267.495 94.578 L 265.67 94.578 Z M 241.724 212.755 L 261.284 202.794 L 261.284 225.914 L 242.08 236.228 Z M 274.443 201.374 L 293.29 212.045 L 293.29 234.804 L 274.087 225.203 Z M 249.233 242.879 L 266.551 233.699 L 283.663 242.669 L 266.741 252.061 Z M 421.679 110.599 L 440.883 120.914 L 440.883 144.033 L 421.322 134.074 Z M 446.34 94.768 L 463.263 104.159 L 446.151 113.131 L 428.831 103.95 Z M 63 213.52 L 76.01 206.895 L 76.01 230.196 L 63.356 236.993 Z M 95.719 202.138 L 114.568 212.809 L 114.568 235.568 L 95.363 225.968 Z M 70.51 243.644 L 76.01 240.729 L 76.01 246.528 Z M 160.623 153.246 L 160.623 137.893 L 175.154 146.695 L 170.243 156.93 Z M 188.502 156.459 L 183.592 146.224 L 198.124 137.423 L 198.124 152.775 Z M 168.266 188.447 L 173.177 198.682 L 158.646 207.483 L 158.646 192.131 Z M 196.148 192.599 L 196.148 207.953 L 181.616 199.15 L 186.527 188.914 Z M 159.118 170.591 L 152.71 179.964 L 137.821 171.78 L 151.118 164.103 Z M 194.865 175.144 L 201.274 165.772 L 216.162 173.957 L 202.866 181.634 Z M 339.336 154.763 L 339.336 139.412 L 353.867 148.213 L 348.956 158.449 Z M 367.216 157.98 L 362.306 147.743 L 376.837 138.942 L 376.837 154.296 Z M 346.979 189.965 L 351.89 200.2 L 337.358 209.001 L 337.358 193.649 Z M 374.861 194.119 L 374.861 209.47 L 360.329 200.67 L 365.24 190.433 Z M 337.832 172.11 L 331.424 181.481 L 316.535 173.298 L 329.83 165.622 Z M 373.578 176.662 L 379.987 167.291 L 394.875 175.474 L 381.58 183.15 Z M 63.671 110.086 L 76.01 116.714 L 76.01 140.025 L 63.314 133.561 Z M 95.679 121.113 L 114.882 111.511 L 114.882 134.271 L 96.032 144.941 Z M 88.332 94.255 L 88.914 94.578 L 87.716 94.578 Z M 70.823 103.437 L 76.01 100.717 L 76.01 106.187 Z M 485.691 235.519 L 485.689 214.408 L 504.802 225.473 L 536.89 206.947 L 554.995 217.758 L 505.222 246.494 Z M 473.281 146.191 L 473.252 168.273 L 505.341 186.8 L 505.029 207.884 L 472.89 189.328 L 472.89 146.417 Z M 421.322 212.902 L 440.882 202.942 L 440.882 226.06 L 421.678 236.375 Z M 428.832 243.026 L 446.15 233.846 L 463.261 242.817 L 446.34 252.208 Z M 30.909 212.682 L 30.599 191.598 L 62.689 173.071 L 62.66 150.989 L 76.01 158.697 L 76.01 186.643 Z M 76.01 94.578 L 76.01 100.717 L 87.716 94.578 Z"/>
  <path  class="x" style="stroke: rgb(0, 0, 0); stroke-width: 0px; fill: rgb(255, 255, 255); fill-opacity: 0.6;" d="M 260.624 184.098 L 242.342 194.653 L 242.37 172.57 L 210.28 154.043 L 210.592 132.96 L 260.364 161.696 Z M 208.336 251.322 L 190.053 240.767 L 209.191 229.751 L 209.191 192.697 L 227.605 182.424 L 227.605 239.895 Z M 126.307 240.101 L 126.305 218.991 L 145.418 230.056 L 177.506 211.53 L 195.611 222.341 L 145.838 251.077 Z M 95.615 161.331 L 113.897 150.773 L 113.868 172.856 L 145.957 191.383 L 145.645 212.467 L 95.875 183.732 Z M 147.222 94.827 L 165.506 105.381 L 146.365 116.399 L 146.365 153.453 L 127.952 163.725 L 127.952 106.253 Z M 230.504 105.264 L 230.505 126.374 L 211.394 115.31 L 179.305 133.836 L 161.202 123.025 L 210.972 94.29 Z">
    <animateTransform attributeType="xml" attributeName="transform" type="rotate" from="360 176 176" to="0 176 176" dur="20s" additive="sum" repeatCount="indefinite" />
  </path>
  <path style="stroke: rgb(0, 0, 0); stroke-width: 0px; fill: rgb(255, 255, 255); fill-opacity: 0.6;" d="M 324.503 94.706 L 374.275 123.442 L 356.171 134.252 L 324.082 115.725 L 304.971 126.791 L 304.972 105.681 Z M 275.113 162.111 L 324.883 133.376 L 325.196 154.458 L 293.106 172.985 L 293.134 195.068 L 274.852 184.513 Z M 307.87 240.313 L 307.87 182.842 L 326.285 193.114 L 326.285 230.168 L 345.424 241.184 L 327.141 251.74 Z M 389.634 251.493 L 339.864 222.758 L 357.965 211.946 L 390.055 230.473 L 409.166 219.408 L 409.165 240.518 Z M 439.6 184.148 L 389.826 212.885 L 389.516 191.801 L 421.607 173.274 L 421.579 151.191 L 439.861 161.746 Z M 407.523 106.668 L 407.523 164.139 L 389.108 153.868 L 389.108 116.814 L 369.97 105.796 L 388.253 95.242 Z">
    <animateTransform attributeType="xml" attributeName="transform" type="rotate" from="0 358 176" to="360 358 176" dur="20s" additive="sum" repeatCount="indefinite" />

  </path>
  <path style="stroke: rgb(0, 0, 0); stroke-width: 0px; fill: rgb(255, 255, 255); fill-opacity: 0.6;" d="M 241.9 109.886 L 261.103 120.2 L 261.103 143.318 L 241.544 133.358 L 241.9 109.886 Z"/>
  <path style="stroke: rgb(0, 0, 0); stroke-width: 0px; fill: rgb(255, 255, 255); fill-opacity: 0.6;" d="M 273.906 120.909 L 293.11 111.308 L 293.11 134.068 L 274.261 144.738 L 273.906 120.909 Z"/>
  <path style="stroke: rgb(0, 0, 0); stroke-width: 0px; fill: rgb(255, 255, 255); fill-opacity: 0.6;" d="M 249.052 103.233 L 266.371 112.415 L 283.483 103.443 L 266.559 94.052 L 249.052 103.233 Z"/>
  <path style="stroke: rgb(0, 0, 0); stroke-width: 0px; fill: rgb(255, 255, 255); fill-opacity: 0.6;" d="M 242.031 236.194 L 261.235 225.88 L 261.235 202.76 L 241.675 212.721 L 242.031 236.194 Z"/>
  <path style="stroke: rgb(0, 0, 0); stroke-width: 0px; fill: rgb(255, 255, 255); fill-opacity: 0.6;" d="M 274.038 225.169 L 293.241 234.77 L 293.241 212.011 L 274.394 201.34 L 274.038 225.169 Z"/>
  <path style="stroke: rgb(0, 0, 0); stroke-width: 0px; fill: rgb(255, 255, 255); fill-opacity: 0.6;" d="M 249.184 242.845 L 266.502 233.665 L 283.614 242.635 L 266.692 252.027 L 249.184 242.845 Z"/>
  <path style="stroke: rgb(0, 0, 0); stroke-width: 0px; fill: rgb(255, 255, 255); fill-opacity: 0.6;" d="M 421.63 110.565 L 440.834 120.88 L 440.834 143.999 L 421.273 134.04 L 421.63 110.565 Z"/>
  <path style="stroke: rgb(0, 0, 0); stroke-width: 0px; fill: rgb(255, 255, 255); fill-opacity: 0.6;" d="M 428.782 103.916 L 446.102 113.097 L 463.214 104.125 L 446.291 94.734 L 428.782 103.916 Z"/>
  <path style="stroke: rgb(0, 0, 0); stroke-width: 0px; fill: rgb(255, 255, 255); fill-opacity: 0.6;" d="M 95.314 225.934 L 114.519 235.534 L 114.519 212.775 L 95.67 202.104 L 95.314 225.934 Z"/>
  <path style="stroke: rgb(0, 0, 0); stroke-width: 0px; fill: rgb(255, 255, 255); fill-opacity: 0.6;" d="M 70.461 243.61 L 87.779 234.43 L 104.89 243.401 L 87.969 252.792 L 70.461 243.61 Z"/>
  <path style="stroke: rgb(0, 0, 0); stroke-width: 0px; fill: rgb(255, 255, 255); fill-opacity: 0.6;" d="M 160.574 153.212 L 160.574 137.859 L 175.105 146.661 L 170.194 156.896 L 160.574 153.212 Z"/>
  <path style="stroke: rgb(0, 0, 0); stroke-width: 0px; fill: rgb(255, 255, 255); fill-opacity: 0.6;" d="M 183.543 141.073 L 183.543 156.425 L 198.075 147.624 L 193.165 137.389 L 183.543 141.073 Z" transform="matrix(-1, 0, 0, -1, 381.617981, 293.814026)"/>
  <path style="stroke: rgb(0, 0, 0); stroke-width: 0px; fill: rgb(255, 255, 255); fill-opacity: 0.6;" d="M 158.597 192.097 L 158.597 207.449 L 173.128 198.648 L 168.217 188.413 L 158.597 192.097 Z"/>
  <path style="stroke: rgb(0, 0, 0); stroke-width: 0px; fill: rgb(255, 255, 255); fill-opacity: 0.6;" d="M 181.567 204.234 L 181.567 188.88 L 196.099 197.683 L 191.188 207.919 L 181.567 204.234 Z" transform="matrix(-1, 0, 0, -1, 377.665985, 396.799011)"/>
  <path style="stroke: rgb(0, 0, 0); stroke-width: 0px; fill: rgb(255, 255, 255); fill-opacity: 0.6;" d="M 142.383 167.443 L 142.383 182.797 L 156.915 173.995 L 152.002 163.759 L 142.383 167.443 Z" transform="matrix(0.5, 0.866025, -0.866025, 0.5, 224.887619, -42.960842)"/>
  <path style="stroke: rgb(0, 0, 0); stroke-width: 0px; fill: rgb(255, 255, 255); fill-opacity: 0.6;" d="M 196.969 166.555 L 196.969 181.908 L 211.502 173.107 L 206.59 162.871 L 196.969 166.555 Z" transform="matrix(-0.5, -0.866025, 0.866025, -0.5, 157.059601, 435.457397)"/>
  <path style="stroke: rgb(0, 0, 0); stroke-width: 0px; fill: rgb(255, 255, 255); fill-opacity: 0.6;" d="M 339.287 154.729 L 339.287 139.378 L 353.818 148.179 L 348.907 158.415 L 339.287 154.729 Z"/>
  <path style="stroke: rgb(0, 0, 0); stroke-width: 0px; fill: rgb(255, 255, 255); fill-opacity: 0.6;" d="M 362.256 142.592 L 362.256 157.946 L 376.787 149.145 L 371.877 138.908 L 362.256 142.592 Z" transform="matrix(-1, 0, 0, -1, 739.042969, 296.854004)"/>
  <path style="stroke: rgb(0, 0, 0); stroke-width: 0px; fill: rgb(255, 255, 255); fill-opacity: 0.6;" d="M 337.309 193.615 L 337.309 208.967 L 351.841 200.166 L 346.93 189.931 L 337.309 193.615 Z"/>
  <path style="stroke: rgb(0, 0, 0); stroke-width: 0px; fill: rgb(255, 255, 255); fill-opacity: 0.6;" d="M 360.279 205.75 L 360.279 190.399 L 374.811 199.199 L 369.9 209.436 L 360.279 205.75 Z" transform="matrix(-1, 0, 0, -1, 735.089966, 399.835022)"/>
  <path style="stroke: rgb(0, 0, 0); stroke-width: 0px; fill: rgb(255, 255, 255); fill-opacity: 0.6;" d="M 321.096 168.963 L 321.096 184.314 L 335.627 175.512 L 330.716 165.277 L 321.096 168.963 Z" transform="matrix(0.5, 0.866025, -0.866025, 0.5, 315.558044, -196.971664)"/>
  <path style="stroke: rgb(0, 0, 0); stroke-width: 0px; fill: rgb(255, 255, 255); fill-opacity: 0.6;" d="M 375.684 168.075 L 375.684 183.426 L 390.215 174.625 L 385.304 164.389 L 375.684 168.075 Z" transform="matrix(-0.5, -0.866025, 0.866025, -0.5, 423.815979, 592.505249)"/>
  <path style="stroke: rgb(0, 0, 0); stroke-width: 0px; fill: rgb(255, 255, 255); fill-opacity: 0.6;" d="M 95.63 121.079 L 114.833 111.477 L 114.833 134.237 L 95.983 144.907 L 95.63 121.079 Z"/>
  <path style="stroke: rgb(0, 0, 0); stroke-width: 0px; fill: rgb(255, 255, 255); fill-opacity: 0.6;" d="M 70.774 103.403 L 88.094 112.584 L 105.206 103.612 L 88.283 94.221 L 70.774 103.403 Z"/>
  <path style="stroke: rgb(0, 0, 0); stroke-width: 0px; fill: rgb(255, 255, 255); fill-opacity: 0.6;" d="M 465.758 151.343 L 465.758 208.812 L 484.173 198.541 L 484.173 161.487 L 503.312 150.471 L 485.028 139.917 L 465.758 151.343 Z" transform="matrix(0.5, -0.866025, 0.866025, 0.5, 91.263359, 506.801819)"/>
  <path style="stroke: rgb(0, 0, 0); stroke-width: 0px; fill: rgb(255, 255, 255); fill-opacity: 0.6;" d="M 421.629 236.341 L 440.833 226.026 L 440.833 202.908 L 421.273 212.868 L 421.629 236.341 Z"/>
  <path style="stroke: rgb(0, 0, 0); stroke-width: 0px; fill: rgb(255, 255, 255); fill-opacity: 0.6;" d="M 428.783 242.992 L 446.101 233.812 L 463.212 242.783 L 446.291 252.174 L 428.783 242.992 Z"/>
  <path style="stroke: rgb(0, 0, 0); stroke-width: 0px; fill: rgb(255, 255, 255); fill-opacity: 0.6;" d="M 32.529 202.185 L 32.529 144.713 L 50.943 154.986 L 50.943 192.041 L 70.081 203.057 L 51.799 213.612 L 32.529 202.185 Z" transform="matrix(-0.5, -0.866025, 0.866025, -0.5, -78.201752, 313.175201)"/>
</svg>
